<mxfile host="app.diagrams.net" modified="2021-08-11T06:33:09.565Z" agent="5.0 (Windows NT 10.0; WOW64) AppleWebKit/537.36 (KHTML, like Gecko) Chrome/92.0.4515.107 Safari/537.36" etag="xciygoQsY4dPrxKRs70D" version="14.9.0" type="github">
  <diagram id="mV2tsoCOGFA-9WBH5Vs1" name="Page-1">
    <mxGraphModel dx="2062" dy="1122" grid="1" gridSize="10" guides="1" tooltips="1" connect="1" arrows="1" fold="1" page="1" pageScale="1" pageWidth="827" pageHeight="1169" math="0" shadow="0">
      <root>
        <mxCell id="0" />
        <mxCell id="1" parent="0" />
        <mxCell id="030E1OE4OdQicN7J7c85-4" style="edgeStyle=orthogonalEdgeStyle;rounded=0;orthogonalLoop=1;jettySize=auto;html=1;exitX=1;exitY=0.5;exitDx=0;exitDy=0;entryX=0;entryY=0.5;entryDx=0;entryDy=0;strokeWidth=1.5;" edge="1" parent="1" source="030E1OE4OdQicN7J7c85-1" target="030E1OE4OdQicN7J7c85-2">
          <mxGeometry relative="1" as="geometry" />
        </mxCell>
        <mxCell id="030E1OE4OdQicN7J7c85-5" style="edgeStyle=orthogonalEdgeStyle;rounded=0;orthogonalLoop=1;jettySize=auto;html=1;exitX=0.5;exitY=1;exitDx=0;exitDy=0;entryX=0.5;entryY=0;entryDx=0;entryDy=0;strokeWidth=1.5;" edge="1" parent="1" source="030E1OE4OdQicN7J7c85-1" target="030E1OE4OdQicN7J7c85-3">
          <mxGeometry relative="1" as="geometry" />
        </mxCell>
        <mxCell id="030E1OE4OdQicN7J7c85-9" style="rounded=0;orthogonalLoop=1;jettySize=auto;html=1;exitX=1;exitY=1;exitDx=0;exitDy=0;entryX=0;entryY=0;entryDx=0;entryDy=0;strokeWidth=1.5;" edge="1" parent="1" source="030E1OE4OdQicN7J7c85-1" target="030E1OE4OdQicN7J7c85-6">
          <mxGeometry relative="1" as="geometry" />
        </mxCell>
        <mxCell id="030E1OE4OdQicN7J7c85-1" value="&lt;i&gt;&lt;font style=&quot;font-size: 22px&quot;&gt;A&lt;/font&gt;&lt;/i&gt;" style="ellipse;whiteSpace=wrap;html=1;aspect=fixed;strokeWidth=1.5;" vertex="1" parent="1">
          <mxGeometry x="180" y="350" width="50" height="50" as="geometry" />
        </mxCell>
        <mxCell id="030E1OE4OdQicN7J7c85-7" style="edgeStyle=orthogonalEdgeStyle;rounded=0;orthogonalLoop=1;jettySize=auto;html=1;exitX=0.5;exitY=1;exitDx=0;exitDy=0;entryX=0.5;entryY=0;entryDx=0;entryDy=0;strokeWidth=1.5;" edge="1" parent="1" source="030E1OE4OdQicN7J7c85-2" target="030E1OE4OdQicN7J7c85-6">
          <mxGeometry relative="1" as="geometry" />
        </mxCell>
        <mxCell id="030E1OE4OdQicN7J7c85-11" style="edgeStyle=orthogonalEdgeStyle;rounded=0;orthogonalLoop=1;jettySize=auto;html=1;exitX=0.5;exitY=0;exitDx=0;exitDy=0;entryX=0.5;entryY=0;entryDx=0;entryDy=0;curved=1;strokeWidth=1.5;" edge="1" parent="1" source="030E1OE4OdQicN7J7c85-2" target="030E1OE4OdQicN7J7c85-1">
          <mxGeometry relative="1" as="geometry">
            <Array as="points">
              <mxPoint x="439" y="300" />
              <mxPoint x="205" y="300" />
            </Array>
          </mxGeometry>
        </mxCell>
        <mxCell id="030E1OE4OdQicN7J7c85-2" value="&lt;i&gt;&lt;font style=&quot;font-size: 22px&quot;&gt;B&lt;/font&gt;&lt;/i&gt;" style="ellipse;whiteSpace=wrap;html=1;aspect=fixed;strokeWidth=1.5;" vertex="1" parent="1">
          <mxGeometry x="414" y="350" width="50" height="50" as="geometry" />
        </mxCell>
        <mxCell id="030E1OE4OdQicN7J7c85-10" style="edgeStyle=none;rounded=0;orthogonalLoop=1;jettySize=auto;html=1;exitX=1;exitY=0;exitDx=0;exitDy=0;entryX=0;entryY=1;entryDx=0;entryDy=0;strokeWidth=1.5;" edge="1" parent="1" source="030E1OE4OdQicN7J7c85-3" target="030E1OE4OdQicN7J7c85-2">
          <mxGeometry relative="1" as="geometry" />
        </mxCell>
        <mxCell id="030E1OE4OdQicN7J7c85-12" style="edgeStyle=orthogonalEdgeStyle;curved=1;rounded=0;orthogonalLoop=1;jettySize=auto;html=1;exitX=0;exitY=0.5;exitDx=0;exitDy=0;entryX=0;entryY=0.5;entryDx=0;entryDy=0;strokeWidth=1.5;" edge="1" parent="1" source="030E1OE4OdQicN7J7c85-3" target="030E1OE4OdQicN7J7c85-1">
          <mxGeometry relative="1" as="geometry">
            <Array as="points">
              <mxPoint x="130" y="560" />
              <mxPoint x="130" y="375" />
            </Array>
          </mxGeometry>
        </mxCell>
        <mxCell id="030E1OE4OdQicN7J7c85-3" value="&lt;i&gt;&lt;font style=&quot;font-size: 22px&quot;&gt;D&lt;/font&gt;&lt;/i&gt;" style="ellipse;whiteSpace=wrap;html=1;aspect=fixed;strokeWidth=1.5;" vertex="1" parent="1">
          <mxGeometry x="180" y="535" width="50" height="50" as="geometry" />
        </mxCell>
        <mxCell id="030E1OE4OdQicN7J7c85-8" style="edgeStyle=orthogonalEdgeStyle;rounded=0;orthogonalLoop=1;jettySize=auto;html=1;entryX=1;entryY=0.5;entryDx=0;entryDy=0;strokeWidth=1.5;" edge="1" parent="1" source="030E1OE4OdQicN7J7c85-6" target="030E1OE4OdQicN7J7c85-3">
          <mxGeometry relative="1" as="geometry" />
        </mxCell>
        <mxCell id="030E1OE4OdQicN7J7c85-6" value="&lt;i&gt;&lt;font style=&quot;font-size: 22px&quot;&gt;C&lt;/font&gt;&lt;/i&gt;" style="ellipse;whiteSpace=wrap;html=1;aspect=fixed;strokeWidth=1.5;" vertex="1" parent="1">
          <mxGeometry x="414" y="535" width="50" height="50" as="geometry" />
        </mxCell>
      </root>
    </mxGraphModel>
  </diagram>
</mxfile>
